# xmcd
#
# Track frame offsets:
# 150
# 19383
# 39534
# 57216
# 74598
# 97340
# 116608
# 140559
# 159135
# 182940
# 210488
# 227660
# 245208
# 265808
# 284337
# 299879
# 325607
#
# Disc length: 4598 seconds
#
#
# Revision: 0
# Processed by: cddbd v1.5.1PL2 Copyright (c) Steve Scherf et al.
# Submitted via: FreeRIP 2.943 
#
DISCID=0f11f411
DTITLE=Michael Bolton - The Vary Best of Michael Bolton
DYEAR=2005
DGENRE=Ballad
TTITLE0=How Am I Supposed To Live Without You
TTITLE1=Soul Provider
TTITLE2=How Can We Be lovers
TTITLE3=When A Man Loves A Woman
TTITLE4=Said I Loved You...But I Lied
TTITLE5=The Best Of Love
TTITLE6=Lean On Me
TTITLE7=To Love Somebody
TTITLE8=Can I Touch You...There?
TTITLE9=Drift Away
TTITLE10=When I'm On My Feet Again
TTITLE11=Dock On The Bay
TTITLE12=Missing You Now
TTITLE13=A Love So Beautiful
TTITLE14=Steel Bars
TTITLE15=Soul Of My Soul
TTITLE16=Time, Love And Tenderness
EXTD=
EXTT0=
EXTT1=
EXTT2=
EXTT3=
EXTT4=
EXTT5=
EXTT6=
EXTT7=
EXTT8=
EXTT9=
EXTT10=
EXTT11=
EXTT12=
EXTT13=
EXTT14=
EXTT15=
EXTT16=
PLAYORDER=
